<mxfile host="app.diagrams.net" agent="Mozilla/5.0 (Windows NT 10.0; Win64; x64) AppleWebKit/537.36 (KHTML, like Gecko) Chrome/132.0.0.0 Safari/537.36" version="26.0.5">
  <diagram name="PÃ¡gina-1" id="teRgkJxNqDV3E3NYmWF8">
    <mxGraphModel dx="1434" dy="746" grid="1" gridSize="10" guides="1" tooltips="1" connect="1" arrows="1" fold="1" page="1" pageScale="1" pageWidth="1169" pageHeight="827" math="0" shadow="0">
      <root>
        <mxCell id="0" />
        <mxCell id="1" parent="0" />
        <mxCell id="HKz89QpKxaQ9k7exocFY-8" style="edgeStyle=orthogonalEdgeStyle;rounded=0;orthogonalLoop=1;jettySize=auto;html=1;entryX=0.5;entryY=0;entryDx=0;entryDy=0;" edge="1" parent="1" source="HKz89QpKxaQ9k7exocFY-1" target="HKz89QpKxaQ9k7exocFY-4">
          <mxGeometry relative="1" as="geometry" />
        </mxCell>
        <mxCell id="HKz89QpKxaQ9k7exocFY-1" value="INICIO" style="strokeWidth=2;html=1;shape=mxgraph.flowchart.start_1;whiteSpace=wrap;" vertex="1" parent="1">
          <mxGeometry x="535" y="60" width="100" height="60" as="geometry" />
        </mxCell>
        <mxCell id="HKz89QpKxaQ9k7exocFY-2" value="FIM" style="strokeWidth=2;html=1;shape=mxgraph.flowchart.start_1;whiteSpace=wrap;" vertex="1" parent="1">
          <mxGeometry x="544" y="510" width="100" height="60" as="geometry" />
        </mxCell>
        <mxCell id="HKz89QpKxaQ9k7exocFY-9" style="edgeStyle=orthogonalEdgeStyle;rounded=0;orthogonalLoop=1;jettySize=auto;html=1;entryX=0.5;entryY=0;entryDx=0;entryDy=0;" edge="1" parent="1" source="HKz89QpKxaQ9k7exocFY-4" target="HKz89QpKxaQ9k7exocFY-5">
          <mxGeometry relative="1" as="geometry" />
        </mxCell>
        <mxCell id="HKz89QpKxaQ9k7exocFY-4" value="COTACAO" style="html=1;strokeWidth=2;shape=manualInput;whiteSpace=wrap;rounded=1;size=26;arcSize=11;" vertex="1" parent="1">
          <mxGeometry x="535" y="140" width="100" height="70" as="geometry" />
        </mxCell>
        <mxCell id="HKz89QpKxaQ9k7exocFY-5" value="VALOR_DOLAR" style="html=1;strokeWidth=2;shape=manualInput;whiteSpace=wrap;rounded=1;size=26;arcSize=11;" vertex="1" parent="1">
          <mxGeometry x="535" y="237" width="100" height="70" as="geometry" />
        </mxCell>
        <mxCell id="HKz89QpKxaQ9k7exocFY-11" style="edgeStyle=orthogonalEdgeStyle;rounded=0;orthogonalLoop=1;jettySize=auto;html=1;" edge="1" parent="1" source="HKz89QpKxaQ9k7exocFY-6" target="HKz89QpKxaQ9k7exocFY-7">
          <mxGeometry relative="1" as="geometry" />
        </mxCell>
        <mxCell id="HKz89QpKxaQ9k7exocFY-6" value="VALOR_REAL = VALOR_DOLAR * COTACAO" style="rounded=1;whiteSpace=wrap;html=1;absoluteArcSize=1;arcSize=14;strokeWidth=2;" vertex="1" parent="1">
          <mxGeometry x="459" y="340" width="270" height="50" as="geometry" />
        </mxCell>
        <mxCell id="HKz89QpKxaQ9k7exocFY-12" style="edgeStyle=orthogonalEdgeStyle;rounded=0;orthogonalLoop=1;jettySize=auto;html=1;" edge="1" parent="1" source="HKz89QpKxaQ9k7exocFY-7" target="HKz89QpKxaQ9k7exocFY-2">
          <mxGeometry relative="1" as="geometry" />
        </mxCell>
        <mxCell id="HKz89QpKxaQ9k7exocFY-7" value="VALOR_REAL" style="strokeWidth=2;html=1;shape=mxgraph.flowchart.display;whiteSpace=wrap;" vertex="1" parent="1">
          <mxGeometry x="544" y="420" width="100" height="60" as="geometry" />
        </mxCell>
        <mxCell id="HKz89QpKxaQ9k7exocFY-10" style="edgeStyle=orthogonalEdgeStyle;rounded=0;orthogonalLoop=1;jettySize=auto;html=1;entryX=0.467;entryY=-0.06;entryDx=0;entryDy=0;entryPerimeter=0;" edge="1" parent="1" source="HKz89QpKxaQ9k7exocFY-5" target="HKz89QpKxaQ9k7exocFY-6">
          <mxGeometry relative="1" as="geometry" />
        </mxCell>
      </root>
    </mxGraphModel>
  </diagram>
</mxfile>
